# xmcd
#
# Track frame offsets:
#	180
#	14571
#	25602
#	40220
#	49953
#	62246
#	73719
#	86914
#	103187
#	116553
#	133285
#	150161
#	162894
#	173849
#	186592
#
# Disc length: 2656 seconds
#
# Revision: 1
# Processed by: cddbd v1.5.1PL2 Copyright (c) Steve Scherf et al.
# Submitted via: audiograbber 1.83.01
#
DISCID=d30a5e0f
DTITLE=Sound Choice - SC8136
DYEAR=1900
DGENRE=Karaoke Country
TTITLE0=Oak Ridge Boys - Y'All Come Back Saloon
TTITLE1=Fireballs - Bottle Of Wine
TTITLE2=Mcbride, Martina - Cheap Whiskey
TTITLE3=Miller, Roger - Chug-A-Lug
TTITLE4=Harris, Peppermint - I Got Loaded
TTITLE5=Russell, Leon - Six Pack To Go
TTITLE6=Lee, Johnny - Hey Bartender
TTITLE7=Brooks, Garth - American Honky Tonk Bar
TTITLE8=Tritt, Travis - Whiskey Ain'T Workin' Anymore, The
TTITLE9=Strait, George - Drinkin' Champagne
TTITLE10=Montgomery, John Michael - Beer And Bones
TTITLE11=West, Shelly - Jose Cuervo
TTITLE12=Williams, Hank Jr. - Honky Tonkin'
TTITLE13=Kingston Trio - Scotch And Soda
TTITLE14=Clean Living - In Heaven There Is No Beer
EXTD=
EXTT0=
EXTT1=
EXTT2=
EXTT3=
EXTT4=
EXTT5=
EXTT6=
EXTT7=
EXTT8=
EXTT9=
EXTT10=
EXTT11=
EXTT12=
EXTT13=
EXTT14=
PLAYORDER=
